<svg width="512" height="512" viewBox="0 0 512 512" xmlns="http://www.w3.org/2000/svg">
  <defs>

    
    <linearGradient id="bg" x1="0" y1="0" x2="0" y2="512" gradientUnits="userSpaceOnUse">
      <stop offset="0%" stop-color="#28282c"></stop>
      <stop offset="100%" stop-color="#0c0c0e"></stop>
    </linearGradient>

    
    <linearGradient id="dropFill" x1="185" y1="118" x2="345" y2="442" gradientUnits="userSpaceOnUse">
      <stop offset="0%" stop-color="#ffffff"></stop>
      <stop offset="100%" stop-color="#c2c2cc"></stop>
    </linearGradient>

    
    <radialGradient id="topGlow" cx="256" cy="0" r="320" gradientUnits="userSpaceOnUse">
      <stop offset="0%" stop-color="white" stop-opacity="0.14"></stop>
      <stop offset="100%" stop-color="white" stop-opacity="0"></stop>
    </radialGradient>

    
    <radialGradient id="spec" cx="206" cy="192" r="90" gradientUnits="userSpaceOnUse">
      <stop offset="0%" stop-color="white" stop-opacity="0.88"></stop>
      <stop offset="45%" stop-color="white" stop-opacity="0.28"></stop>
      <stop offset="100%" stop-color="white" stop-opacity="0"></stop>
    </radialGradient>

    
    <radialGradient id="dropShadow" cx="256" cy="442" r="140" gradientUnits="userSpaceOnUse">
      <stop offset="0%" stop-color="black" stop-opacity="0.18"></stop>
      <stop offset="100%" stop-color="black" stop-opacity="0"></stop>
    </radialGradient>

    <clipPath id="sq">
      <rect width="512" height="512" rx="114"></rect>
    </clipPath>
  </defs>

  
  <rect width="512" height="512" rx="114" fill="url(#bg)"></rect>

  
  <rect width="512" height="512" rx="114" fill="url(#topGlow)"></rect>

  
  <path d="M114 0 L398 0 Q512 0 512 114 L512 172 Q420 94 256 94 Q92 94 0 172 L0 114 Q0 0 114 0 Z" fill="white" fill-opacity="0.075" clip-path="url(#sq)"></path>

  
  <rect x="0.75" y="0.75" width="510.5" height="510.5" rx="113.5" fill="none" stroke="white" stroke-width="1.5" stroke-opacity="0.16"></rect>

  
  <path d="M256 118&#xA;           C308 170 376 258 376 326&#xA;           A120 120 0 1 1 136 326&#xA;           C136 258 204 170 256 118 Z" fill="url(#dropFill)"></path>

  
  <path d="M256 118&#xA;           C308 170 376 258 376 326&#xA;           A120 120 0 1 1 136 326&#xA;           C136 258 204 170 256 118 Z" fill="url(#dropShadow)"></path>

  
  <path d="M256 118&#xA;           C308 170 376 258 376 326&#xA;           A120 120 0 1 1 136 326&#xA;           C136 258 204 170 256 118 Z" fill="url(#spec)"></path>

</svg>